<mxfile host="app.diagrams.net" agent="Mozilla/5.0 (Windows NT 10.0; Win64; x64; rv:128.0) Gecko/20100101 Firefox/128.0" version="28.0.3">
  <diagram name="Página-1" id="JVR2gjezMkfqLmy3_KWO">
    <mxGraphModel dx="1042" dy="563" grid="1" gridSize="10" guides="1" tooltips="1" connect="1" arrows="1" fold="1" page="1" pageScale="1" pageWidth="1169" pageHeight="1654" math="0" shadow="0">
      <root>
        <mxCell id="0" />
        <mxCell id="1" parent="0" />
        <mxCell id="_uCO9KfTtX73LUVjTH6H-33" value="&lt;div align=&quot;right&quot;&gt;&lt;br&gt;&lt;/div&gt;" style="shape=partialRectangle;whiteSpace=wrap;html=1;bottom=1;right=1;left=1;top=0;fillColor=none;routingCenterX=-0.5;strokeColor=#d79b00;fillStyle=dashed;gradientColor=default;" parent="1" vertex="1">
          <mxGeometry x="30" y="40" width="190" height="480" as="geometry" />
        </mxCell>
        <mxCell id="_uCO9KfTtX73LUVjTH6H-30" value="&lt;b&gt;&lt;font face=&quot;Verdana&quot;&gt;Compresión del negocio&lt;/font&gt;&lt;/b&gt;" style="shape=process;whiteSpace=wrap;html=1;backgroundOutline=1;fillColor=#ffe6cc;strokeColor=#d79b00;" parent="1" vertex="1">
          <mxGeometry x="53" y="12" width="147" height="60" as="geometry" />
        </mxCell>
        <mxCell id="_uCO9KfTtX73LUVjTH6H-32" value="&lt;div align=&quot;left&quot;&gt;&lt;pre aria-label=&quot;Texto traducido: Determinar&lt;br/&gt;Objetivos de negocio&quot; dir=&quot;ltr&quot; data-ved=&quot;2ahUKEwjb2cu727iOAxXSSTABHZKbG1sQ3ewLegQICRAU&quot; style=&quot;&quot; id=&quot;tw-target-text&quot; data-placeholder=&quot;Traducción&quot; class=&quot;tw-data-text tw-text-large tw-ta&quot;&gt;&lt;font face=&quot;Verdana&quot;&gt;&lt;b&gt;&lt;span lang=&quot;es&quot; class=&quot;Y2IQFc&quot;&gt;Determinar los&lt;br&gt;Objetivos de negocio&lt;br&gt;&lt;/span&gt;&lt;/b&gt;&lt;span lang=&quot;es&quot; class=&quot;Y2IQFc&quot;&gt;Antecedentes&lt;br&gt;Objetivos empresariales&lt;br&gt;Éxito empresarial&lt;br&gt;Criterios&lt;/span&gt;&lt;br&gt;&lt;br&gt;&lt;b&gt;&lt;span lang=&quot;es&quot; class=&quot;Y2IQFc&quot;&gt;&lt;/span&gt;&lt;span lang=&quot;es&quot; class=&quot;Y2IQFc&quot;&gt;Evaluar la situación&lt;br&gt;&lt;/span&gt;&lt;/b&gt;&lt;span lang=&quot;es&quot; class=&quot;Y2IQFc&quot;&gt;Requisitos, supuestos y&lt;br&gt;restricciones&lt;br&gt;Riesgos y contingencias&lt;br&gt;Terminología&lt;br&gt;Costos y beneficios&lt;br&gt;&lt;br&gt;&lt;/span&gt;&lt;span lang=&quot;es&quot; class=&quot;Y2IQFc&quot;&gt;&lt;b&gt;Determinar los &lt;br&gt;objetivos de la &lt;br&gt;minería de datos&lt;br&gt;&lt;/b&gt;&lt;/span&gt;&lt;/font&gt;&lt;span lang=&quot;es&quot; class=&quot;Y2IQFc&quot;&gt;&lt;font face=&quot;Verdana&quot;&gt;Objetivos de la minería&lt;br&gt;de datos&lt;br&gt;Éxito de la minería de datos&lt;br&gt;Criterios&lt;/font&gt;&lt;br&gt;&lt;br&gt;&lt;/span&gt;&lt;font face=&quot;Verdana&quot;&gt;&lt;span lang=&quot;es&quot; class=&quot;Y2IQFc&quot;&gt;&lt;b&gt;Producir plan de &lt;br&gt;proyecto&lt;/b&gt;&lt;br&gt;Plan del proyecto&lt;br&gt;Evaluación inicial de &lt;br&gt;herramientas y técnicas&lt;br&gt;&lt;/span&gt;&lt;span lang=&quot;es&quot; class=&quot;Y2IQFc&quot;&gt;&lt;br&gt;&lt;br&gt;&lt;/span&gt;&lt;/font&gt;&lt;/pre&gt;&lt;/div&gt;" style="text;html=1;align=left;verticalAlign=middle;whiteSpace=wrap;rounded=0;fillColor=none;" parent="1" vertex="1">
          <mxGeometry x="40" y="80" width="170" height="460" as="geometry" />
        </mxCell>
        <mxCell id="_uCO9KfTtX73LUVjTH6H-34" value="&lt;div align=&quot;right&quot;&gt;&lt;br&gt;&lt;/div&gt;" style="shape=partialRectangle;whiteSpace=wrap;html=1;bottom=1;right=1;left=1;top=0;fillColor=none;routingCenterX=-0.5;strokeColor=#d79b00;fillStyle=dashed;gradientColor=default;" parent="1" vertex="1">
          <mxGeometry x="224" y="40" width="190" height="480" as="geometry" />
        </mxCell>
        <mxCell id="_uCO9KfTtX73LUVjTH6H-35" value="&lt;b&gt;&lt;font face=&quot;Verdana&quot;&gt;Compresión de los datos&lt;br&gt;&lt;/font&gt;&lt;/b&gt;" style="shape=process;whiteSpace=wrap;html=1;backgroundOutline=1;fillColor=#ffe6cc;strokeColor=#d79b00;" parent="1" vertex="1">
          <mxGeometry x="247" y="12" width="147" height="60" as="geometry" />
        </mxCell>
        <mxCell id="_uCO9KfTtX73LUVjTH6H-36" value="&lt;div align=&quot;left&quot;&gt;&lt;pre aria-label=&quot;Texto traducido: Determinar&lt;br/&gt;Objetivos de negocio&quot; dir=&quot;ltr&quot; data-ved=&quot;2ahUKEwjb2cu727iOAxXSSTABHZKbG1sQ3ewLegQICRAU&quot; style=&quot;&quot; id=&quot;tw-target-text&quot; data-placeholder=&quot;Traducción&quot; class=&quot;tw-data-text tw-text-large tw-ta&quot;&gt;&lt;font face=&quot;Verdana&quot;&gt;&lt;span lang=&quot;es&quot; class=&quot;Y2IQFc&quot;&gt;&lt;b&gt;Recopilar datos iniciales&lt;/b&gt;&lt;/span&gt;&lt;b&gt;&lt;span lang=&quot;es&quot; class=&quot;Y2IQFc&quot;&gt;&lt;/span&gt;&lt;/b&gt;&lt;/font&gt;&lt;font face=&quot;Verdana&quot;&gt;&lt;span lang=&quot;es&quot; class=&quot;Y2IQFc&quot;&gt;&lt;br&gt;&lt;/span&gt;&lt;/font&gt;&lt;font face=&quot;Verdana&quot;&gt;&lt;span lang=&quot;es&quot; class=&quot;Y2IQFc&quot;&gt;Informe inicial de &lt;br&gt;recopilación de datos&lt;/span&gt;&lt;span lang=&quot;es&quot; class=&quot;Y2IQFc&quot;&gt;&lt;/span&gt;&lt;/font&gt;&lt;font face=&quot;Verdana&quot;&gt;&lt;br&gt;&lt;br&gt;&lt;br&gt;&lt;b&gt;&lt;/b&gt;&lt;/font&gt;&lt;span lang=&quot;es&quot; class=&quot;Y2IQFc&quot;&gt;&lt;b&gt;&lt;font face=&quot;Verdana&quot;&gt;Describir datos&lt;/font&gt;&lt;/b&gt;&lt;br&gt;&lt;/span&gt;&lt;span lang=&quot;es&quot; class=&quot;Y2IQFc&quot;&gt;&lt;font face=&quot;Verdana&quot;&gt;Informe de descripción de&lt;br&gt;datos&lt;/font&gt;&lt;/span&gt;&lt;br&gt;&lt;font face=&quot;Verdana&quot;&gt;&lt;span lang=&quot;es&quot; class=&quot;Y2IQFc&quot;&gt;&lt;br&gt;&lt;/span&gt;&lt;span lang=&quot;es&quot; class=&quot;Y2IQFc&quot;&gt;&lt;b&gt;&lt;/b&gt;&lt;/span&gt;&lt;/font&gt;&lt;br&gt;&lt;span lang=&quot;es&quot; class=&quot;Y2IQFc&quot;&gt;&lt;font face=&quot;Verdana&quot;&gt;&lt;b&gt;Explorar datos&lt;/b&gt;&lt;/font&gt;&lt;br&gt;&lt;/span&gt;&lt;span lang=&quot;es&quot; class=&quot;Y2IQFc&quot;&gt;&lt;font face=&quot;Verdana&quot;&gt;Informe de exploración de&lt;br&gt;datos&lt;/font&gt;&lt;/span&gt;&lt;br&gt;&lt;span lang=&quot;es&quot; class=&quot;Y2IQFc&quot;&gt;&lt;br&gt;&lt;/span&gt;&lt;span lang=&quot;es&quot; class=&quot;Y2IQFc&quot;&gt;&lt;font face=&quot;Verdana&quot;&gt;&lt;b&gt;Verificar la calidad de &lt;br&gt;los datos&lt;/b&gt;&lt;/font&gt;&lt;/span&gt;&lt;br&gt;&lt;span lang=&quot;es&quot; class=&quot;Y2IQFc&quot;&gt;&lt;font face=&quot;Verdana&quot;&gt;Informe de calidad de datos&lt;br&gt;&lt;br&gt;&lt;br&gt;&lt;br&gt;&lt;br&gt;&lt;br&gt;&lt;br&gt;&lt;br&gt;&lt;br&gt;&lt;br&gt;&lt;br&gt;&lt;/font&gt;&lt;/span&gt;&lt;font face=&quot;Verdana&quot;&gt;&lt;span lang=&quot;es&quot; class=&quot;Y2IQFc&quot;&gt;&lt;/span&gt;&lt;span lang=&quot;es&quot; class=&quot;Y2IQFc&quot;&gt;&lt;br&gt;&lt;br&gt;&lt;/span&gt;&lt;/font&gt;&lt;/pre&gt;&lt;/div&gt;" style="text;html=1;align=left;verticalAlign=middle;whiteSpace=wrap;rounded=0;fillColor=none;" parent="1" vertex="1">
          <mxGeometry x="234" y="80" width="170" height="460" as="geometry" />
        </mxCell>
        <mxCell id="ShErQlXqmdDHL752pNjg-1" value="&lt;div align=&quot;right&quot;&gt;&lt;br&gt;&lt;/div&gt;" style="shape=partialRectangle;whiteSpace=wrap;html=1;bottom=1;right=1;left=1;top=0;fillColor=none;routingCenterX=-0.5;strokeColor=#d79b00;fillStyle=dashed;gradientColor=default;" vertex="1" parent="1">
          <mxGeometry x="418" y="40" width="190" height="480" as="geometry" />
        </mxCell>
        <mxCell id="ShErQlXqmdDHL752pNjg-2" value="&lt;b&gt;&lt;font face=&quot;Verdana&quot;&gt;Compresión de los datos&lt;br&gt;&lt;/font&gt;&lt;/b&gt;" style="shape=process;whiteSpace=wrap;html=1;backgroundOutline=1;fillColor=#ffe6cc;strokeColor=#d79b00;" vertex="1" parent="1">
          <mxGeometry x="441" y="12" width="147" height="60" as="geometry" />
        </mxCell>
        <mxCell id="ShErQlXqmdDHL752pNjg-3" value="&lt;div align=&quot;left&quot;&gt;&lt;pre aria-label=&quot;Texto traducido: Determinar&lt;br/&gt;Objetivos de negocio&quot; dir=&quot;ltr&quot; data-ved=&quot;2ahUKEwjb2cu727iOAxXSSTABHZKbG1sQ3ewLegQICRAU&quot; style=&quot;&quot; id=&quot;tw-target-text&quot; data-placeholder=&quot;Traducción&quot; class=&quot;tw-data-text tw-text-large tw-ta&quot;&gt;&lt;font face=&quot;Verdana&quot;&gt;&lt;span lang=&quot;es&quot; class=&quot;Y2IQFc&quot;&gt;&lt;b&gt;Recopilar datos iniciales&lt;/b&gt;&lt;/span&gt;&lt;b&gt;&lt;span lang=&quot;es&quot; class=&quot;Y2IQFc&quot;&gt;&lt;/span&gt;&lt;/b&gt;&lt;/font&gt;&lt;font face=&quot;Verdana&quot;&gt;&lt;span lang=&quot;es&quot; class=&quot;Y2IQFc&quot;&gt;&lt;br&gt;&lt;/span&gt;&lt;/font&gt;&lt;font face=&quot;Verdana&quot;&gt;&lt;span lang=&quot;es&quot; class=&quot;Y2IQFc&quot;&gt;Informe inicial de &lt;br&gt;recopilación de datos&lt;/span&gt;&lt;span lang=&quot;es&quot; class=&quot;Y2IQFc&quot;&gt;&lt;/span&gt;&lt;/font&gt;&lt;font face=&quot;Verdana&quot;&gt;&lt;br&gt;&lt;br&gt;&lt;br&gt;&lt;b&gt;&lt;/b&gt;&lt;/font&gt;&lt;span lang=&quot;es&quot; class=&quot;Y2IQFc&quot;&gt;&lt;b&gt;&lt;font face=&quot;Verdana&quot;&gt;Describir datos&lt;/font&gt;&lt;/b&gt;&lt;br&gt;&lt;/span&gt;&lt;span lang=&quot;es&quot; class=&quot;Y2IQFc&quot;&gt;&lt;font face=&quot;Verdana&quot;&gt;Informe de descripción de&lt;br&gt;datos&lt;/font&gt;&lt;/span&gt;&lt;br&gt;&lt;font face=&quot;Verdana&quot;&gt;&lt;span lang=&quot;es&quot; class=&quot;Y2IQFc&quot;&gt;&lt;br&gt;&lt;/span&gt;&lt;span lang=&quot;es&quot; class=&quot;Y2IQFc&quot;&gt;&lt;b&gt;&lt;/b&gt;&lt;/span&gt;&lt;/font&gt;&lt;br&gt;&lt;span lang=&quot;es&quot; class=&quot;Y2IQFc&quot;&gt;&lt;font face=&quot;Verdana&quot;&gt;&lt;b&gt;Explorar datos&lt;/b&gt;&lt;/font&gt;&lt;br&gt;&lt;/span&gt;&lt;span lang=&quot;es&quot; class=&quot;Y2IQFc&quot;&gt;&lt;font face=&quot;Verdana&quot;&gt;Informe de exploración de&lt;br&gt;datos&lt;/font&gt;&lt;/span&gt;&lt;br&gt;&lt;span lang=&quot;es&quot; class=&quot;Y2IQFc&quot;&gt;&lt;br&gt;&lt;/span&gt;&lt;span lang=&quot;es&quot; class=&quot;Y2IQFc&quot;&gt;&lt;font face=&quot;Verdana&quot;&gt;&lt;b&gt;Verificar la calidad de &lt;br&gt;los datos&lt;/b&gt;&lt;/font&gt;&lt;/span&gt;&lt;br&gt;&lt;span lang=&quot;es&quot; class=&quot;Y2IQFc&quot;&gt;&lt;font face=&quot;Verdana&quot;&gt;Informe de calidad de datos&lt;br&gt;&lt;br&gt;&lt;br&gt;&lt;br&gt;&lt;br&gt;&lt;br&gt;&lt;br&gt;&lt;br&gt;&lt;br&gt;&lt;br&gt;&lt;br&gt;&lt;/font&gt;&lt;/span&gt;&lt;font face=&quot;Verdana&quot;&gt;&lt;span lang=&quot;es&quot; class=&quot;Y2IQFc&quot;&gt;&lt;/span&gt;&lt;span lang=&quot;es&quot; class=&quot;Y2IQFc&quot;&gt;&lt;br&gt;&lt;br&gt;&lt;/span&gt;&lt;/font&gt;&lt;/pre&gt;&lt;/div&gt;" style="text;html=1;align=left;verticalAlign=middle;whiteSpace=wrap;rounded=0;fillColor=none;" vertex="1" parent="1">
          <mxGeometry x="428" y="80" width="170" height="460" as="geometry" />
        </mxCell>
      </root>
    </mxGraphModel>
  </diagram>
</mxfile>
